<svg xmlns="http://www.w3.org/2000/svg" viewBox="0 0 241.67 40.44"><defs><style>.cls-1{fill:#e18a07;}.cls-2{fill:#fff;}</style></defs><title>office_2</title><g id="Layer_2" data-name="Layer 2"><g id="Layer_1-2" data-name="Layer 1"><path class="cls-1" d="M158.56,9.46A8.62,8.62,0,0,1,167,18.22,8.62,8.62,0,0,1,158.56,27h-3.64v4.78h-4.53V9.46Zm-3.64,13h3.64a4,4,0,0,0,3.88-4.24A4,4,0,0,0,158.56,14h-3.64Z"/><path class="cls-1" d="M178.11,9.46a8.62,8.62,0,0,1,8.4,8.76,8.83,8.83,0,0,1-5,8l5.6,5.52h-6L176.18,27h-1.72v4.78h-4.52V9.46Zm-3.65,13h3.65A4,4,0,0,0,182,18.22,4,4,0,0,0,178.11,14h-3.65Z"/><path class="cls-1" d="M204.6,9.46V14H194.42v4.5h9.81v4.19h-9.81v4.5H204.6v4.55H189.87V9.46Z"/><path class="cls-1" d="M221.6,11l-2.55,3.69a7.23,7.23,0,0,0-3.83-1.23c-1.24,0-2.65.71-2.65,2.06s2.37,2.06,3.58,2.45c3.72,1,6.8,3.27,6.8,7.06h0c0,3.67-3,7.26-7.88,7.26a12.59,12.59,0,0,1-7.9-2.88l2.33-3.95A9.35,9.35,0,0,0,215,27.66c1.55,0,3.28-.76,3.28-2.61,0-1.64-2.45-2.41-4-2.87-3.17-.86-6.4-2.79-6.4-6.66,0-3.68,3.34-6.6,7.3-6.6A10.89,10.89,0,0,1,221.6,11Z"/><path class="cls-1" d="M239.51,11,237,14.69a7.22,7.22,0,0,0-3.82-1.23c-1.25,0-2.66.71-2.66,2.06s2.37,2.06,3.58,2.45c3.72,1,6.8,3.27,6.8,7.06h0c0,3.67-3,7.26-7.88,7.26a12.59,12.59,0,0,1-7.9-2.88l2.33-3.95a9.35,9.35,0,0,0,5.52,2.18c1.55,0,3.28-.76,3.28-2.61,0-1.64-2.45-2.41-4-2.87-3.17-.86-6.39-2.79-6.39-6.66,0-3.68,3.34-6.6,7.3-6.6A10.89,10.89,0,0,1,239.51,11Z"/><polygon class="cls-1" points="141.3 0 130.26 14.91 132.77 18.22 143.81 3.29 241.67 3.29 241.67 0 141.3 0"/><path class="cls-2" d="M14.23,8.92A11.7,11.7,0,1,0,26,20.61,11.72,11.72,0,0,0,14.23,8.92Zm0,19a7.3,7.3,0,1,1,7.3-7.3A7.3,7.3,0,0,1,14.23,27.91Z"/><polygon class="cls-2" points="28.97 9.46 28.97 31.76 33.52 31.76 33.52 22.97 43.43 22.97 43.43 18.39 33.52 18.39 33.52 14.05 43.71 14.05 43.71 9.46 33.64 9.46 28.97 9.46"/><polygon class="cls-2" points="46.71 9.46 46.71 31.76 51.26 31.76 51.26 22.97 61.16 22.97 61.16 18.39 51.26 18.39 51.26 14.05 61.44 14.05 61.44 9.46 51.38 9.46 46.71 9.46"/><rect class="cls-2" x="64.45" y="9.46" width="4.55" height="22.31"/><path class="cls-2" d="M84.21,13.75a8.86,8.86,0,0,1,5.43,1.93l2.63-3.91A12.61,12.61,0,0,0,84.2,8.92C77,8.92,72,14.27,72,20.61S77,32.3,84.2,32.3a12.61,12.61,0,0,0,8.07-2.84l-2.63-3.91a8.93,8.93,0,0,1-5.43,1.93c-3.68-.05-7.24-2.43-7.4-6.87C77,16.18,80.53,13.8,84.21,13.75Z"/><polygon class="cls-2" points="95.05 31.76 109.79 31.76 109.79 27.21 99.6 27.21 99.6 22.71 109.41 22.71 109.41 18.52 99.6 18.52 99.6 14.02 109.79 14.02 109.79 9.46 95.05 9.46 95.05 31.76"/><polygon class="cls-2" points="0 0 0 3.29 113.16 3.29 110.7 0 0 0"/><path class="cls-2" d="M150.17,37.58c0-1.28.72-1.58,1.92-1.58h1.56c1.9,0,2.14.41,2.13,1.64h-1.33v-.12c0-.31-.23-.4-.62-.4h-1.45c-.71,0-.84.33-.84.87v.47c0,.63.13.87.76.87h1.43c.6,0,.77-.06.77-.6h1.34v.41c0,.73-.27,1.3-1.6,1.3h-2.15c-1.2,0-1.92-.3-1.92-1.57Z"/><path class="cls-2" d="M162.73,37.58c0-1.28.71-1.58,1.91-1.58h2.13c1.2,0,1.92.3,1.92,1.58v1.29c0,1.27-.72,1.57-1.92,1.57h-2.13c-1.2,0-1.91-.3-1.91-1.57Zm1.36.88c0,.63.14.87.77.87h1.7c.63,0,.76-.24.76-.87V38c0-.54-.13-.87-.83-.87h-1.56c-.7,0-.84.33-.84.87Z"/><path class="cls-2" d="M175.68,36.05H177v2.51c0,.55.19.77.74.77h1.32c.55,0,.74-.22.74-.77V36.05h1.33v2.8c0,1.08-.55,1.59-1.78,1.59h-1.9c-1.23,0-1.78-.51-1.78-1.59Z"/><path class="cls-2" d="M188.23,36.05h4c1,0,1.31.51,1.31,1.29v.28c0,.58-.14.92-.75,1.07h0c.4.07.73.24.73,1v.73H192.2v-.52c0-.45-.13-.6-.55-.6h-2.09v1.12h-1.33Zm1.33,2.14h2.2c.36,0,.49-.15.49-.46v-.14c0-.39-.19-.46-.61-.46h-2.08Z"/><path class="cls-2" d="M200.7,36.05H202v4.34H200.7Z"/><path class="cls-2" d="M209.19,36.05h4.74v1h-3.41v.7h3.23v.9h-3.23v.69H214v1h-4.82Z"/><path class="cls-2" d="M221,36.05h4c1,0,1.3.51,1.3,1.29v.28c0,.58-.13.92-.75,1.07h0c.4.07.73.24.73,1v.73H225v-.52c0-.45-.13-.6-.55-.6h-2.09v1.12H221Zm1.33,2.14h2.2c.36,0,.49-.15.49-.46v-.14c0-.39-.19-.46-.61-.46h-2.08Z"/><path class="cls-2" d="M233.32,39h1.33c0,.47.2.5.58.5h1.63c.28,0,.57,0,.57-.36s-.16-.41-1.87-.41c-2,0-2.23-.24-2.23-1.3,0-.79.07-1.4,1.75-1.4h1.86c1.53,0,1.68.53,1.68,1.29v.14h-1.33c0-.32,0-.45-.65-.45h-1.48c-.3,0-.5.1-.5.33s.16.39,1.59.39c2.07,0,2.55.12,2.55,1.38s-.4,1.36-2.17,1.36H235c-1.21,0-1.7-.23-1.7-1.17Z"/><polygon class="cls-1" points="113.46 37.11 0 37.11 0 40.4 113.31 40.4 113.34 40.35 116.15 40.35 127.99 24.41 125.47 21.04 113.46 37.11"/><polygon class="cls-2" points="146.47 40.4 117.88 0 112.85 0 141.37 40.4 146.47 40.4"/></g></g></svg>