<svg xmlns="http://www.w3.org/2000/svg" viewBox="0 0 241.67 58.19"><defs><style>.cls-1{fill:#e18a07;}.cls-2{fill:#979797;}.cls-3{fill:#174793;}</style></defs><title>officexpress</title><g id="Layer_2" data-name="Layer 2"><g id="Layer_1-2" data-name="Layer 1"><path class="cls-1" d="M158.56,9.46A8.62,8.62,0,0,1,167,18.22,8.62,8.62,0,0,1,158.56,27h-3.64v4.78h-4.53V9.46Zm-3.64,13h3.64a4,4,0,0,0,3.88-4.24A4,4,0,0,0,158.56,14h-3.64Z"/><path class="cls-1" d="M178.11,9.46a8.62,8.62,0,0,1,8.4,8.76,8.83,8.83,0,0,1-5,8l5.6,5.52h-6L176.18,27h-1.72v4.78h-4.52V9.46Zm-3.65,13h3.65A4,4,0,0,0,182,18.22,4,4,0,0,0,178.11,14h-3.65Z"/><path class="cls-1" d="M204.6,9.46V14H194.42v4.5h9.81v4.19h-9.81v4.5H204.6v4.55H189.87V9.46Z"/><path class="cls-1" d="M221.6,11l-2.55,3.69a7.23,7.23,0,0,0-3.83-1.23c-1.24,0-2.65.71-2.65,2.06s2.37,2.06,3.58,2.45c3.72,1,6.8,3.27,6.8,7.06h0c0,3.67-3,7.26-7.88,7.26a12.59,12.59,0,0,1-7.9-2.88l2.33-3.95A9.35,9.35,0,0,0,215,27.66c1.55,0,3.28-.76,3.28-2.61,0-1.64-2.45-2.41-4-2.87-3.17-.86-6.4-2.79-6.4-6.66,0-3.68,3.34-6.6,7.3-6.6A10.89,10.89,0,0,1,221.6,11Z"/><path class="cls-1" d="M239.51,11,237,14.69a7.22,7.22,0,0,0-3.82-1.23c-1.25,0-2.66.71-2.66,2.06s2.37,2.06,3.58,2.45c3.72,1,6.8,3.27,6.8,7.06h0c0,3.67-3,7.26-7.88,7.26a12.59,12.59,0,0,1-7.9-2.88l2.33-3.95a9.35,9.35,0,0,0,5.52,2.18c1.55,0,3.28-.76,3.28-2.61,0-1.64-2.45-2.41-4-2.87-3.17-.86-6.39-2.79-6.39-6.66,0-3.68,3.34-6.6,7.3-6.6A10.89,10.89,0,0,1,239.51,11Z"/><path class="cls-2" d="M86.84,49.31,85.7,51a3.86,3.86,0,0,0-2.35-.83,3,3,0,1,0,0,5.93,3.86,3.86,0,0,0,2.35-.83L86.84,57a5.5,5.5,0,0,1-3.5,1.23,5.06,5.06,0,1,1,0-10.11A5.5,5.5,0,0,1,86.84,49.31Z"/><path class="cls-2" d="M103.13,53.13a5.08,5.08,0,1,1-5.08-5.05A5.07,5.07,0,0,1,103.13,53.13Zm-8.24,0A3.16,3.16,0,1,0,98.05,50,3.17,3.17,0,0,0,94.89,53.13Z"/><path class="cls-2" d="M112,48.31v5.87a1.88,1.88,0,1,0,3.75,0V48.31h2v5.94a3.9,3.9,0,1,1-7.79,0V48.31Z"/><path class="cls-2" d="M128.4,48.31A3.73,3.73,0,0,1,132,52.1a3.82,3.82,0,0,1-2.18,3.47L132.28,58h-2.61l-2.1-2.07h-.74V58h-2V48.31Zm-1.57,5.62h1.57a1.84,1.84,0,0,0,0-3.66h-1.57Z"/><path class="cls-2" d="M141.05,48.31V58h-2V48.31Z"/><path class="cls-2" d="M154.48,48.31v2h-4.4v1.95h4.24V54h-4.24v2h4.4v2h-6.37V48.31Z"/><path class="cls-2" d="M165.09,48.31a3.73,3.73,0,0,1,3.63,3.79,3.82,3.82,0,0,1-2.18,3.47L169,58h-2.62l-2.1-2.07h-.74V58h-2V48.31Zm-1.58,5.62h1.58a1.84,1.84,0,0,0,0-3.66h-1.58Z"/><path class="cls-2" d="M181.53,49l-1.1,1.59a3.14,3.14,0,0,0-1.65-.53c-.54,0-1.15.31-1.15.89s1,.89,1.55,1.06c1.6.43,2.94,1.42,2.94,3h0a3.24,3.24,0,0,1-3.41,3.14A5.44,5.44,0,0,1,175.3,57l1-1.71a4.08,4.08,0,0,0,2.39.94c.67,0,1.42-.33,1.42-1.13s-1.06-1-1.73-1.24c-1.37-.37-2.76-1.21-2.76-2.88a3,3,0,0,1,3.16-2.85A4.67,4.67,0,0,1,181.53,49Z"/><polygon class="cls-1" points="141.3 0 130.69 14.31 133.2 17.62 143.81 3.29 241.67 3.29 241.67 0 141.3 0"/><polygon class="cls-1" points="112.85 0 126.98 18.96 113.46 37.11 0 37.11 0 40.4 113.31 40.4 113.34 40.35 116.15 40.35 129.5 22.34 142.95 40.4 148.05 40.4 117.88 0 112.85 0"/><path class="cls-3" d="M14.23,8.92A11.7,11.7,0,1,0,26,20.61,11.72,11.72,0,0,0,14.23,8.92Zm0,19a7.3,7.3,0,1,1,7.3-7.3A7.3,7.3,0,0,1,14.23,27.91Z"/><polygon class="cls-3" points="28.97 9.46 28.97 31.76 33.52 31.76 33.52 22.97 43.43 22.97 43.43 18.39 33.52 18.39 33.52 14.05 43.71 14.05 43.71 9.46 33.64 9.46 28.97 9.46"/><polygon class="cls-3" points="46.71 9.46 46.71 31.76 51.26 31.76 51.26 22.97 61.16 22.97 61.16 18.39 51.26 18.39 51.26 14.05 61.44 14.05 61.44 9.46 51.38 9.46 46.71 9.46"/><rect class="cls-3" x="64.45" y="9.46" width="4.55" height="22.31"/><path class="cls-3" d="M84.21,13.75a8.86,8.86,0,0,1,5.43,1.93l2.63-3.91A12.61,12.61,0,0,0,84.2,8.92C77,8.92,72,14.27,72,20.61S77,32.3,84.2,32.3a12.61,12.61,0,0,0,8.07-2.84l-2.63-3.91a8.93,8.93,0,0,1-5.43,1.93c-3.68-.05-7.24-2.43-7.4-6.87C77,16.18,80.53,13.8,84.21,13.75Z"/><polygon class="cls-3" points="95.05 31.76 109.79 31.76 109.79 27.21 99.6 27.21 99.6 22.71 109.41 22.71 109.41 18.52 99.6 18.52 99.6 14.02 109.79 14.02 109.79 9.46 95.05 9.46 95.05 31.76"/><polygon class="cls-3" points="147.6 37.11 150.05 40.4 241.67 40.4 241.67 37.11 147.6 37.11"/><polygon class="cls-3" points="0 0 0 3.29 113.16 3.29 110.7 0 0 0"/></g></g></svg>